<svg width="26" height="26" viewBox="0 0 26 26" fill="none" xmlns="http://www.w3.org/2000/svg">
<path d="M26 13.0791C26 5.85547 20.1803 4.83994e-06 13.0007 5.15377e-06C5.81973 -0.00137164 -8.80545e-07 5.85547 -5.64788e-07 13.0791C-2.79416e-07 19.6077 4.75401 25.0186 10.9691 26L10.9691 16.8589L7.66798 16.8589L7.66798 13.0778L10.9691 13.0778L10.9691 10.1968C10.9691 6.9181 12.9104 5.10805 15.8791 5.10805C17.3019 5.10805 18.789 5.36408 18.789 5.36408L18.789 8.58225L17.15 8.58225C15.5357 8.58225 15.0309 9.58982 15.0309 10.6249L15.0309 13.0778L18.6357 13.0778L18.0598 16.8589L15.0309 16.8589L15.0309 26C21.246 25.0186 26 19.6077 26 13.0791Z" fill="white"/>
</svg>
