<svg width="164" height="61" viewBox="0 0 164 61" fill="none" xmlns="http://www.w3.org/2000/svg">
<path d="M107.55 48.1643H105.398C104.427 49.3788 103.362 50.5179 102.215 51.5715C98.76 54.7051 94.6072 56.9923 90.0918 58.2483C85.5764 59.5043 80.8251 59.6938 76.2218 58.8016C71.6185 57.9093 67.2924 55.9603 63.5931 53.1121C59.8937 50.2638 56.9249 46.5963 54.9266 42.4058H53.0766C55.3227 47.4208 58.8669 51.7633 63.3527 54.9964C67.8385 58.2294 73.1076 60.2389 78.6298 60.8226C84.152 61.4064 89.7326 60.5438 94.8099 58.3216C99.8872 56.0995 104.282 52.5962 107.553 48.1643" fill="white"/>
<path d="M81.9967 1.67479C86.1139 1.60153 90.1988 2.40491 93.9733 4.03023C97.7478 5.65554 101.123 8.06466 103.87 11.0936C105.42 12.7455 106.78 14.5625 107.924 16.5109L109.787 16.3686C108.501 14.0518 106.93 11.9013 105.109 9.96624C102.207 6.76438 98.6405 4.21729 94.6523 2.49832C90.6642 0.779351 86.3477 -0.071162 81.9967 0.0046584C76.2777 -0.0186772 70.6616 1.50578 65.7584 4.41242C60.8553 7.31906 56.8526 11.4967 54.1852 16.4916H56.1089C58.7039 11.9756 62.4697 8.22296 67.0193 5.61904C71.569 3.01512 76.7387 1.65377 81.9974 1.67479" fill="white"/>
<path d="M50.7558 34.7266C50.97 36.7514 51.395 38.7491 52.0241 40.6879H53.8037C53.2509 39.085 52.8471 37.4358 52.5973 35.7606L50.7558 34.7266Z" fill="white"/>
<path d="M51.3727 33.5066C51.8876 34.0642 52.5047 34.5208 53.1914 34.8522C53.908 35.2076 54.6681 35.4702 55.4529 35.6332C56.2192 35.8062 56.9973 35.9241 57.7809 35.986C59.365 36.111 60.9564 36.1159 62.5413 36.0008C63.4022 35.9467 64.2585 35.8363 65.1047 35.6705C66.9422 35.3515 68.686 34.6366 70.212 33.5767C70.9913 33.0054 71.6122 32.2494 72.0176 31.3786C72.434 30.4829 72.7536 29.5463 72.971 28.5844L75.6909 17.3937H69.4796L66.8484 28.2373C66.4708 29.8469 65.7907 31.1552 64.24 31.707C63.9082 31.825 63.5674 31.9165 63.2207 31.9806C62.475 32.1143 61.7177 32.1754 60.9599 32.1629H60.9482C60.3761 32.1668 59.8044 32.1324 59.237 32.0598C58.538 31.9697 57.5181 31.7379 57.1353 31.0374C56.7499 30.3215 56.9606 29.205 57.1353 28.4858L59.8305 17.3937H53.6544L50.6365 28.5522C50.2367 30.0291 50.2237 32.2575 51.3727 33.5066Z" fill="white"/>
<path d="M111.089 37.4783C110.627 39.4943 109.945 41.4547 109.054 43.3251C108.566 44.3565 108.022 45.3609 107.424 46.3338H109.384C109.804 45.5972 110.203 44.8323 110.585 44.0159C111.577 41.9262 112.325 39.7318 112.814 37.4751L111.089 37.4783Z" fill="white"/>
<path d="M153.922 43.6207V42.7406C153.931 42.5204 153.874 42.3024 153.758 42.1141C153.642 41.9258 153.472 41.7757 153.27 41.6828C152.602 41.4218 151.885 41.309 151.169 41.3525H140.654V48.523H150.404C151.325 48.5661 152.245 48.4484 153.124 48.1753C153.723 47.9455 154.021 47.5862 154.021 47.1155V46.1974C154.018 46.006 153.963 45.8189 153.862 45.6557C153.76 45.4926 153.616 45.3592 153.445 45.2696C152.944 44.9946 152.383 44.8417 151.81 44.8234C152.354 44.8104 152.888 44.681 153.375 44.4442C153.536 44.3722 153.673 44.2566 153.77 44.1108C153.866 43.965 153.919 43.795 153.922 43.6207ZM143.467 42.5107H149.973C150.32 42.4903 150.668 42.5327 150.999 42.6357C151.083 42.6624 151.157 42.7156 151.208 42.7872C151.259 42.8588 151.284 42.9448 151.281 43.0323V43.7154C151.283 43.8031 151.257 43.8892 151.206 43.9611C151.156 44.0331 151.083 44.0873 150.999 44.1159C150.667 44.2145 150.32 44.255 149.973 44.2356H143.467V42.5107ZM151.361 46.5876C151.368 46.6898 151.345 46.7919 151.294 46.8811C151.243 46.9704 151.167 47.0427 151.074 47.0891C150.72 47.2052 150.346 47.252 149.973 47.2269H143.467V45.4119H149.973C150.346 45.3839 150.721 45.4317 151.074 45.5523C151.167 45.5959 151.244 45.6665 151.295 45.7544C151.346 45.8424 151.369 45.9437 151.361 46.0448V46.5876Z" fill="white"/>
<path d="M23.5083 42.6067V41.3518H11.0884V48.523H13.9505V45.8034H19.1282V44.4899H13.9505V42.6067H23.5083Z" fill="white"/>
<path d="M49.1653 48.5229V42.633H54.8184V41.3524H40.6776V42.633H46.3052V48.5229H49.1653Z" fill="white"/>
<path d="M33.5383 41.3518H30.6743V41.6654H31.8513V41.7613H30.6743V42.1231H31.8513V42.221H30.6743V42.5738H31.8513V42.6762H30.6743V43.0419H32.137V43.1391H30.6743V43.4977H31.8513V43.5988H30.6743V43.96H31.8513V44.063H30.6743V44.4197H31.8513V44.5221H30.6743V44.8814H32.48V44.9825H30.6743V45.3417H31.8513V45.4376H30.6743V45.8027H31.8513V45.8974H30.6743V46.2611H31.8513V46.3571H30.6743V46.7215H32.137V46.8193H30.6743V47.1812H31.8513V47.2816H30.6743V47.637H31.8513V47.7342H30.6743V48.1045H31.8513V48.1991H30.6743V48.523H33.5383V41.3518Z" fill="white"/>
<path d="M87.9413 43.7217V43.0489C87.9717 42.7899 87.9285 42.5276 87.8167 42.2914C87.7049 42.0551 87.5288 41.8542 87.3081 41.711C86.5418 41.4125 85.7167 41.2899 84.8953 41.3524H77.5735C76.7504 41.2886 75.9234 41.4112 75.1555 41.711C74.9353 41.8544 74.7599 42.0556 74.6489 42.2919C74.5379 42.5281 74.4956 42.7903 74.5269 43.0489V46.8199C74.4945 47.0795 74.5362 47.3428 74.6473 47.5802C74.7583 47.8176 74.9344 48.0197 75.1555 48.1636C75.9228 48.4653 76.7503 48.5882 77.5735 48.5229H84.8927C85.7142 48.5869 86.5397 48.464 87.3055 48.1636C87.5272 48.02 87.704 47.8181 87.8159 47.5808C87.9277 47.3434 87.9703 47.0799 87.9387 46.8199V45.9745L85.0779 45.6281V47.1682H77.3831V42.6336H85.0779V43.9857L87.9413 43.7217Z" fill="white"/>
<path d="M127.913 47.1676H119.772V41.3524H116.91V46.82C116.878 47.0803 116.921 47.3441 117.033 47.5817C117.146 47.8193 117.323 48.0211 117.545 48.1643C118.312 48.464 119.137 48.5867 119.958 48.5229H127.712C128.533 48.5882 129.359 48.4655 130.125 48.1643C130.344 48.019 130.519 47.8165 130.629 47.5792C130.74 47.342 130.782 47.0792 130.751 46.82V41.3524H127.913V47.1676Z" fill="white"/>
<path d="M100.31 41.3518H97.4477V48.523H109.52V47.1677H100.31V41.3518Z" fill="white"/>
<path d="M88.3045 36.0819H94.5171L97.1679 25.1519C97.528 23.9504 97.6363 22.689 97.4862 21.4447C97.4024 20.8914 97.1525 20.3756 96.7689 19.9638C96.2565 19.4066 95.6413 18.951 94.956 18.6214C94.2438 18.2606 93.4865 17.9944 92.7036 17.8295C91.1224 17.5155 89.5117 17.3685 87.8989 17.391H77.0173L72.4774 36.0819H78.6534L82.24 21.305H87.2234C87.7931 21.3037 88.3623 21.3392 88.9273 21.4112C89.6218 21.4949 90.6397 21.7273 91.0108 22.4278C91.3883 23.1438 91.1784 24.2692 91.001 24.9788L88.3045 36.0819Z" fill="white"/>
<path d="M26.6932 30.8989C26.827 31.6277 27.1132 32.321 27.5336 32.9345C27.954 33.548 28.4993 34.0682 29.1347 34.462C30.1669 35.1655 31.3464 35.6302 32.5856 35.8218C33.9032 36.0197 35.2354 36.1074 36.568 36.0838H48.045L49.0505 31.9477H37.5312C36.947 31.9515 36.3632 31.9173 35.7835 31.8454C35.1567 31.7898 34.5498 31.599 34.0059 31.2865C33.1432 30.7238 33.1614 29.6698 33.3101 28.7929L41.7007 28.8167C42.5718 28.8248 43.4427 28.7839 44.3091 28.6944C45.3354 28.6061 46.3441 28.3759 47.3055 28.0106C48.0269 27.7594 48.6884 27.3648 49.2492 26.8512C49.81 26.3376 50.2582 25.7159 50.566 25.0245C50.9697 24.1837 51.2129 23.2765 51.2834 22.3486C51.3964 21.4187 51.1548 20.4805 50.6058 19.7166C49.9536 18.938 49.0702 18.3813 48.0802 18.125C46.5604 17.7283 44.9911 17.5477 43.4196 17.5887H40.1265L40.1206 17.5932C38.917 17.6132 37.7172 17.7334 36.5341 17.9525C31.2951 18.9021 28.1285 21.8935 26.883 27.0217C26.5325 28.2847 26.4679 29.6085 26.6938 30.8989H26.6932ZM39.8396 21.7293L41.8879 21.7383C42.2791 21.7383 42.6052 21.7524 42.9919 21.7769C43.3919 21.7958 43.7876 21.8666 44.1689 21.9875C44.4728 22.086 44.8041 22.2566 44.8125 22.6094C44.8228 23.0494 44.6834 23.4801 44.4167 23.8327C44.2286 24.0581 43.9833 24.2303 43.7059 24.3317C43.3408 24.4669 42.9597 24.5554 42.5719 24.595C42.1317 24.6425 41.6889 24.6621 41.2462 24.6536H34.4297C34.7796 23.8544 35.3608 23.175 36.1004 22.7008C36.6188 22.3709 37.1908 22.1313 37.7913 21.9926C38.4608 21.8289 39.1468 21.7399 39.8363 21.7273L39.8396 21.7293Z" fill="white"/>
<path d="M135.874 36.0818L139.461 21.3049H144.443C145.012 21.3036 145.581 21.3391 146.145 21.4112C146.841 21.4949 147.86 21.7273 148.231 22.4278C148.613 23.1438 148.397 24.2692 148.221 24.9787L145.525 36.0818H151.733L154.389 25.1519C154.749 23.9504 154.857 22.6889 154.707 21.4447C154.624 20.8911 154.374 20.3751 153.99 19.9638C153.479 19.4061 152.864 18.9504 152.179 18.6214C151.468 18.2613 150.711 17.9951 149.929 17.8295C148.347 17.5156 146.736 17.3686 145.123 17.391H134.237L129.703 36.0793L135.874 36.0818Z" fill="white"/>
<path d="M105.379 18.4225C101.006 19.7804 98.6423 22.8431 97.629 27.0191C97.2773 28.2822 97.2125 29.6064 97.4392 30.897C97.5735 31.6256 97.8598 32.3186 98.28 32.932C98.7003 33.5454 99.2451 34.0658 99.88 34.4601C100.928 35.1805 102.131 35.649 103.395 35.8282C104.042 35.9406 104.695 36.0107 105.351 36.0381C106.085 36.069 106.71 36.0838 107.453 36.0819H118.77L121.542 24.6536H108.44L107.424 28.8348H114.184L113.457 31.8216H108.206C107.591 31.8301 106.978 31.7757 106.374 31.6593C105.751 31.5687 105.172 31.2896 104.716 30.8603C104.073 30.1862 104.055 29.0891 104.17 28.2437C104.316 27.1399 104.623 26.0625 105.079 25.0445C105.396 24.327 105.854 23.6795 106.428 23.14C106.982 22.6282 107.649 22.2512 108.376 22.039C109.205 21.7934 110.068 21.6795 110.933 21.7016H122.256L123.257 17.5874H111.675C110.294 17.5664 108.915 17.6727 107.555 17.9049C106.819 18.026 106.091 18.1982 105.379 18.4199" fill="white"/>
<path d="M17.9231 35.9312C19.01 35.83 20.0782 35.5847 21.0988 35.2018C22.1069 34.8525 23.0143 34.2675 23.7437 33.4969C24.7674 32.3551 25.3935 30.9195 25.5305 29.4007C25.7639 27.2934 24.7525 25.9175 22.6925 25.3265C21.2664 24.9701 19.7973 24.8095 18.3267 24.8494H11.6348C11.0349 24.8801 10.435 24.7863 9.87414 24.5738C9.70883 24.5163 9.56997 24.4021 9.4829 24.2519C9.40324 24.0684 9.39259 23.8629 9.45289 23.6724C9.45791 23.6562 9.46142 23.6396 9.46334 23.6228C9.52676 23.3016 9.67276 23.002 9.88734 22.7525C10.1019 22.5031 10.3779 22.3124 10.6886 22.1987C11.0804 22.0371 11.4926 21.9288 11.9139 21.8767C12.3896 21.8154 12.8689 21.787 13.3486 21.7917H26.4695L27.4914 17.581H13.3688C12.4244 17.571 11.4802 17.6192 10.5419 17.7252C9.43871 17.8338 8.35525 18.088 7.32052 18.4811C6.30807 18.8489 5.40049 19.4525 4.67493 20.2407C4.2863 20.6577 3.96159 21.1286 3.71112 21.6385C3.04239 22.8917 2.79136 24.3214 2.99381 25.7237C3.08838 26.183 3.28325 26.6165 3.5648 26.9939C3.84635 27.3713 4.20782 27.6835 4.62406 27.9089C5.04386 28.1599 5.49502 28.3558 5.9661 28.4916C7.42146 28.8689 8.92359 29.0408 10.4278 29.0022H16.39C16.7532 29.0022 17.0616 29.0163 17.4268 29.0408C17.7934 29.0605 18.1555 29.1301 18.5028 29.2475C18.6412 29.2806 18.7643 29.3585 18.8526 29.4688C18.9409 29.579 18.9892 29.7153 18.9899 29.8559C19.0126 30.2396 18.9004 30.6192 18.6722 30.9305C18.4441 31.2419 18.114 31.4659 17.7379 31.5647C17.3346 31.6882 16.9193 31.7693 16.4989 31.8068C16.002 31.846 15.5859 31.8615 15.0864 31.8615H1.02381L0 36.0761H15.1327C16.065 36.0806 16.9968 36.0303 17.9231 35.9254" fill="white"/>
<path d="M157.556 17.5862L153.067 36.0819H159.509L164 17.5862H157.556Z" fill="white"/>
<path d="M129.336 28.8973L130.338 24.7664H123.357L122.353 28.8973H129.336Z" fill="white"/>
</svg>
