<svg width="27" height="27" viewBox="0 0 27 27" fill="none" xmlns="http://www.w3.org/2000/svg">
<path d="M13.5987 2.35582C17.0883 2.35582 17.5017 2.36942 18.8793 2.43198C20.1536 2.49046 20.8458 2.70261 21.3054 2.88212C21.9161 3.11875 22.3512 3.40297 22.8082 3.85991C23.2651 4.31685 23.5493 4.75203 23.786 5.36265C23.9655 5.82366 24.1776 6.51451 24.2361 7.78878C24.2987 9.16639 24.3123 9.57982 24.3123 13.0694C24.3123 16.559 24.2987 16.9724 24.2361 18.3501C24.1776 19.6243 23.9655 20.3165 23.786 20.7762C23.5493 21.3868 23.2651 21.822 22.8082 22.2789C22.3512 22.7359 21.9161 23.0201 21.3054 23.2567C20.8444 23.4362 20.1536 23.6484 18.8793 23.7069C17.5017 23.7694 17.0883 23.783 13.5987 23.783C10.1091 23.783 9.69565 23.7694 8.31803 23.7069C7.04377 23.6484 6.35156 23.4362 5.8919 23.2567C5.28129 23.0201 4.84611 22.7359 4.38917 22.2789C3.93223 21.822 3.648 21.3868 3.41137 20.7762C3.23186 20.3152 3.01971 19.6243 2.96123 18.3501C2.89868 16.9724 2.88508 16.559 2.88508 13.0694C2.88508 9.57982 2.89868 9.1664 2.96123 7.78878C3.01971 6.51451 3.23186 5.82231 3.41137 5.36265C3.648 4.75204 3.93223 4.31685 4.38917 3.85991C4.84611 3.40297 5.28129 3.11875 5.8919 2.88212C6.35292 2.70261 7.04377 2.49046 8.31803 2.43198C9.69565 2.36942 10.1091 2.35582 13.5987 2.35582ZM13.5987 0.000409509C10.0492 0.000409664 9.60453 0.0153671 8.21059 0.0792843C6.81938 0.143202 5.87014 0.363514 5.03786 0.687177C4.17838 1.02172 3.44945 1.46778 2.72324 2.19399C1.99703 2.9202 1.54961 3.64912 1.21643 4.50861C0.892765 5.33953 0.672454 6.29013 0.608537 7.68134C0.54462 9.07528 0.529662 9.51998 0.529663 13.0694C0.529663 16.6189 0.54462 17.0636 0.608537 18.4575C0.672455 19.8487 0.892765 20.7979 1.21643 21.6302C1.55098 22.4897 1.99704 23.2186 2.72324 23.9448C3.44945 24.6711 4.17838 25.1185 5.03786 25.4517C5.86878 25.7753 6.81938 25.9956 8.21059 26.0596C9.60453 26.1235 10.0492 26.1384 13.5987 26.1384C17.1481 26.1384 17.5928 26.1235 18.9867 26.0596C20.378 25.9956 21.3272 25.7753 22.1595 25.4517C23.019 25.1171 23.7479 24.6711 24.4741 23.9448C25.2003 23.2186 25.6477 22.4897 25.9809 21.6302C26.3046 20.7993 26.5249 19.8487 26.5888 18.4575C26.6527 17.0636 26.6677 16.6189 26.6677 13.0694C26.6677 9.51998 26.6527 9.07528 26.5888 7.68134C26.5249 6.29013 26.3046 5.34089 25.9809 4.5086C25.6464 3.64912 25.2003 2.9202 24.4741 2.19399C23.7479 1.46778 23.019 1.02036 22.1595 0.687177C21.3286 0.363513 20.378 0.143201 18.9867 0.0792839C17.5928 0.0153668 17.1481 0.000409354 13.5987 0.000409509Z" fill="white"/>
<path d="M13.5983 6.35841C9.89246 6.35841 6.88699 9.36252 6.88699 13.0697C6.88699 16.7769 9.8911 19.781 13.5983 19.781C17.3055 19.781 20.3096 16.7769 20.3096 13.0697C20.3096 9.36252 17.3055 6.35841 13.5983 6.35841ZM13.5983 17.4256C11.1926 17.4256 9.24241 15.4754 9.24241 13.0697C9.24241 10.664 11.1926 8.71383 13.5983 8.71383C16.004 8.71383 17.9542 10.664 17.9542 13.0697C17.9542 15.4754 16.004 17.4256 13.5983 17.4256Z" fill="white"/>
<path d="M22.1427 6.09337C22.1427 5.22738 21.4407 4.52536 20.5747 4.52536C19.7087 4.52536 19.0067 5.22738 19.0067 6.09337C19.0067 6.95936 19.7087 7.66138 20.5747 7.66138C21.4407 7.66138 22.1427 6.95936 22.1427 6.09337Z" fill="white"/>
</svg>
